<svg width="813" height="594" viewBox="0 0 813 594" fill="none" xmlns="http://www.w3.org/2000/svg">
<g clip-path="url(#clip0)">
<path d="M17.7969 318.897C17.7969 318.897 129.76 337.885 191.344 235.244C252.928 132.603 281.743 91.6802 393.046 116.502C504.349 141.324 639.902 40.9224 684.537 0C684.537 0 648.702 86.7084 706.339 150.736C780.78 233.431 907.26 385.518 669.327 512.979C576.381 562.771 484.214 551.889 375.531 485.474C173.757 362.172 136.116 399.604 136.116 399.604L73.0701 398.751L17.7969 318.897Z" fill="#F4FBF6"/>
<path d="M272.105 281.564C276.175 260.373 266.906 244.726 250.879 232.651C234.851 220.575 209.488 178.519 209.488 178.519L189.233 212.525C189.233 212.525 215.482 250.308 247.268 257.581" stroke="#1F2B24" stroke-miterlimit="10" stroke-linecap="round" stroke-linejoin="round"/>
<path d="M349.692 187.333C349.692 187.333 378.123 223.809 364.473 269.132H346.302C346.302 269.132 354.026 222.387 332.272 192.391L349.692 187.333Z" fill="#6FCF97"/>
<path d="M256.89 284.951C256.89 284.951 265.562 283.219 270.611 274.011C270.611 274.011 266.366 272.152 260.227 264.061C254.088 255.97 256.89 284.951 256.89 284.951Z" fill="#1F2B24"/>
<path d="M495.754 449.521C495.754 449.521 513.916 407.033 487.346 275.94L513.225 261.682C513.225 261.682 544.3 355.553 529.234 455.147L495.754 449.521Z" fill="#E0F2E7"/>
<path d="M445.687 242.018C400.838 115.036 427.014 88.4141 427.014 88.4141C398.438 99.9045 393.899 97.9101 383.258 95.8203C377.833 94.755 372.743 99.2592 372.09 105.742C369.472 131.73 369.931 202.653 410.968 268.625L445.687 242.018Z" fill="#E0F2E7"/>
<path d="M214.085 343.852C214.085 343.852 307.054 324.82 289.512 289.512C279.352 269.065 204.977 320.725 208.269 333.03C210.475 341.276 214.085 343.852 214.085 343.852Z" fill="#F9BF7A"/>
<path d="M131.738 286.991C143.495 293.59 188.039 341.576 211.69 343.75C235.341 345.924 222.8 312.695 176.513 293.981C158.021 286.504 143.957 279.477 131.591 274.941C131.591 274.941 119.98 280.393 131.738 286.991Z" fill="#F9BF7A"/>
<path d="M559.202 264.674L565.836 234.133C566.176 234.298 566.671 234.563 567.291 234.963C568.559 235.781 570.352 237.165 572.41 239.415C576.527 243.913 581.716 251.887 585.888 265.748C590.066 279.626 590.594 289.512 589.24 296.078C587.885 302.649 584.678 305.806 581.432 306.479C580.817 306.607 579.97 306.253 578.878 305.21C577.816 304.196 576.647 302.647 575.419 300.713C572.966 296.85 570.342 291.548 567.927 286.181C565.515 280.817 563.321 275.407 561.73 271.335C560.935 269.3 560.29 267.6 559.844 266.41C559.622 265.814 559.449 265.346 559.331 265.027C559.275 264.875 559.232 264.756 559.202 264.674Z" fill="#1F2B24" stroke="#1F2B24"/>
<path d="M284.987 278.697C284.987 278.697 259.731 276.443 258.811 255.043C257.862 232.987 250.306 282.254 250.306 282.254C250.306 282.254 260.633 284.764 283.943 302.272C288.043 305.352 284.987 278.697 284.987 278.697Z" fill="#F9BF7A"/>
<path d="M241.066 261.489C241.066 261.489 229.611 226.794 270.987 224.018C312.364 221.242 287.585 145.744 367.999 132.421C367.999 132.421 348.023 149.813 356.475 148.784C378.901 146.053 382.702 145.267 384.255 148.329C384.255 148.329 379.955 156.636 382.543 165.741C384.618 173.043 391.025 173.022 392.288 185.74C395.678 219.837 368.314 207.785 371.896 210.682C380.626 217.742 384.129 229.291 384.129 229.291C384.129 229.291 346.493 210.139 335.973 233.177C325.454 256.215 308.389 259.823 283.143 261.488C272.009 262.223 262.333 264.701 259.636 269.318C256.856 274.074 255.403 276.82 251.781 272.946L241.066 261.489Z" fill="#1F2B24"/>
<path d="M260.235 266.762C262.103 278.146 256.969 286.757 253.491 288.055C247.864 290.155 243.335 282.348 241.467 270.964C239.599 259.58 242.778 249.266 248.568 247.926C254.358 246.586 258.367 255.378 260.235 266.762Z" fill="#F9BF7A"/>
<path d="M248.568 247.926C254.358 246.586 258.368 255.378 260.236 266.762C261.534 274.671 259.451 281.243 256.893 284.952" stroke="#1F2B24" stroke-miterlimit="10" stroke-linecap="round" stroke-linejoin="round"/>
<path d="M245.455 264.76L244.89 276.29" stroke="#1F2B24" stroke-miterlimit="10" stroke-linecap="round" stroke-linejoin="round"/>
<path d="M325.038 304.05C346.431 260.773 335.567 218.857 313.47 199.402C291.373 179.948 280.198 103.244 280.198 103.244C242.908 120.795 222.629 143.721 222.629 143.721C222.629 143.721 230.857 197.896 268.194 228.233C305.53 258.569 288.347 308.805 288.347 308.805L325.038 304.05Z" stroke="#1F2B24" stroke-miterlimit="10" stroke-linecap="round" stroke-linejoin="round"/>
<path d="M248.739 268.433C249.2 268.243 249.354 267.342 249.083 266.422C248.813 265.502 248.22 264.911 247.76 265.102C247.299 265.293 247.145 266.194 247.416 267.113C247.686 268.033 248.279 268.624 248.739 268.433Z" fill="#1F2B24"/>
<path d="M243.615 269.405C244.076 269.214 244.23 268.314 243.959 267.394C243.689 266.474 243.096 265.883 242.635 266.074C242.175 266.265 242.021 267.165 242.292 268.085C242.562 269.005 243.155 269.596 243.615 269.405Z" fill="#1F2B24"/>
<path d="M249.354 263.713C249.354 263.713 248.444 262.536 247.14 262.123" stroke="#1F2B24" stroke-miterlimit="10" stroke-linecap="round" stroke-linejoin="round"/>
<path d="M393.573 312.392L413.724 297.171C413.724 297.171 432.339 451.318 366.438 499.173L343.574 484.755C343.574 484.755 404.873 444.491 393.573 312.392Z" fill="#E0F2E7"/>
<path d="M291.714 311.292L261.723 389.843C261.723 389.843 312.613 417.012 336.342 452.791C336.342 452.791 377.489 397.457 363.966 338.737" stroke="#1F2B24" stroke-miterlimit="10" stroke-linecap="round" stroke-linejoin="round"/>
<path d="M754.634 222.565C754.634 222.565 775.272 252.673 791.936 313.012" stroke="#1F2B24" stroke-miterlimit="10" stroke-linecap="round" stroke-linejoin="round"/>
<path d="M383.025 377.051C383.025 377.051 402.8 407.078 432.462 396.322C462.124 385.566 514.668 362.757 540.941 401.331L538.963 443.576C538.963 443.576 501.637 408.736 442.632 432.19C400.731 448.846 369.59 421.792 369.59 421.792L383.025 377.051Z" stroke="#1F2B24" stroke-miterlimit="10" stroke-linecap="round" stroke-linejoin="round"/>
<path d="M242.53 262.176C242.53 262.176 241.553 263.275 241.226 264.83" stroke="#1F2B24" stroke-miterlimit="10" stroke-linecap="round" stroke-linejoin="round"/>
<path d="M241.557 250.539C241.557 250.539 247.931 266.664 264.01 260.715C280.088 254.766 254.016 233.63 241.557 250.539Z" fill="#1F2B24"/>
<path d="M405.734 270.525C405.734 270.525 473.888 370.119 392.58 514.026C392.58 514.026 411.718 529.366 427.034 533.273C442.35 537.18 494.468 396.049 453.437 287.495C412.406 178.942 405.734 270.525 405.734 270.525Z" fill="#E0F2E7"/>
<path d="M260.424 268.094C260.424 268.094 261.217 269.898 265.106 269.828C268.995 269.758 271.563 262.586 286.499 264.248C301.434 265.911 303.094 269.132 303.094 269.132C303.094 269.132 295.026 256.902 275.747 260.281C256.468 263.658 260.424 268.094 260.424 268.094Z" fill="#1F2B24"/>
<path d="M257.61 269.132C259.882 269.132 261.723 266.946 261.723 264.248C261.723 261.551 259.882 259.365 257.61 259.365C255.339 259.365 253.497 261.551 253.497 264.248C253.497 266.946 255.339 269.132 257.61 269.132Z" fill="#F9BF7A"/>
<path d="M118.777 412.741L123.969 409.595L126.813 412.741L132.585 409.176L136.423 412.224L142.401 409.847L139.294 402.551C139.295 402.552 112.387 396.346 118.777 412.741Z" fill="#F2994A"/>
<path d="M258.603 262.546C256.893 263.212 257.117 265.575 257.117 265.575C257.117 265.575 257.93 264.224 258.883 264.4" stroke="#1F2B24" stroke-miterlimit="10" stroke-linecap="round" stroke-linejoin="round"/>
<path d="M241.557 250.539C241.557 250.539 245.193 259.707 253.933 261.683" stroke="#1F2B24" stroke-miterlimit="10" stroke-linecap="round" stroke-linejoin="round"/>
<path d="M675.214 346.87C674.677 346.87 674.137 346.67 673.676 346.255C673.007 345.652 657.161 331.168 644.91 304.656C637.704 289.061 633.275 272.545 631.745 255.565C629.833 234.362 632.466 212.408 639.57 190.316C662.428 119.227 637.949 52.6777 626.364 27.3649C625.693 25.8997 626.15 24.0669 627.384 23.2706C628.618 22.475 630.161 23.0164 630.832 24.4815C637.606 39.2833 646.646 63.0277 651.238 92.0906C656.782 127.18 654.455 160.952 644.321 192.469C631.947 230.955 633.645 267.723 649.369 301.752C661.105 327.149 676.599 341.308 676.755 341.449C677.873 342.458 678.089 344.351 677.24 345.679C676.739 346.46 675.98 346.87 675.214 346.87Z" fill="#E0F2E7"/>
<path d="M673.54 345.707C674.565 346.632 676.146 346.552 677.071 345.527C677.996 344.502 677.915 342.921 676.89 341.996L673.54 345.707ZM639.566 190.627C624.088 238.762 632.521 277.527 644.87 304.253C651.036 317.598 658.172 327.93 663.774 334.935C666.576 338.438 668.998 341.114 670.728 342.921C671.593 343.825 672.286 344.512 672.768 344.978C673.008 345.211 673.196 345.389 673.327 345.511C673.392 345.571 673.443 345.618 673.478 345.651C673.496 345.668 673.51 345.68 673.521 345.69C673.526 345.694 673.53 345.698 673.533 345.701C673.535 345.703 673.536 345.704 673.537 345.705C673.539 345.706 673.54 345.707 675.215 343.852C676.89 341.996 676.891 341.996 676.891 341.997C676.891 341.997 676.891 341.997 676.891 341.997C676.89 341.996 676.889 341.995 676.886 341.992C676.881 341.988 676.872 341.979 676.86 341.968C676.834 341.945 676.794 341.907 676.739 341.856C676.63 341.754 676.464 341.597 676.245 341.385C675.807 340.961 675.159 340.319 674.34 339.464C672.702 337.752 670.379 335.188 667.679 331.812C662.276 325.056 655.374 315.065 649.409 302.156C637.496 276.373 629.293 238.908 644.326 192.158L639.566 190.627Z" fill="#6FCF97"/>
<path d="M398.413 299.646C398.413 299.646 364.231 305.348 306.602 279.185C295.646 274.211 282.915 271.442 277.491 277.348C263.239 292.866 262.436 287.73 262.436 287.73C255.923 314.237 262.686 356.764 297.915 357.759C325.823 358.548 369.318 359.603 398.206 351.183C402.555 349.916 418.347 359.071 422.425 357.759C448.847 349.263 457.24 329.838 460.328 326.25C467.06 318.43 398.413 299.646 398.413 299.646Z" fill="#6652e0"/>
<path d="M388.641 330.56C378.823 341.355 386.409 360.756 399.694 358.858C434.928 353.825 492.949 341.81 547.4 313.703C633.388 269.317 663.798 231.718 675.858 228.933C679.493 228.093 667.467 227.808 649.327 228.87C618 235 590.799 240.291 567.5 248.5C550.593 254.457 546.701 275.601 546.701 275.601C546.701 275.601 448.156 265.124 388.641 330.56Z" fill="#F9BF7A"/>
<path d="M559.698 235.083C488.38 279.21 332.43 275.6 366.833 345.653C397.303 407.699 581.533 306.968 581.533 306.968C568.246 295.442 569.602 284.075 570.881 271.397C575.86 222.014 560.542 234.561 559.698 235.083Z" fill="#6652e0"/>
<path opacity="0.6" d="M261.109 318.852C262.839 334.977 271.158 350.262 285.014 355.213C302.946 331.347 320.562 299.176 295.552 282.2C285.186 275.164 270.985 296.252 261.109 318.852Z" fill="#1F2B24"/>
<path d="M257.693 376.806C257.693 376.806 338.135 295.636 292.478 280.416C273.268 274.012 241.847 361.165 248.142 371.693C252.364 378.752 257.693 376.806 257.693 376.806Z" fill="#F9BF7A"/>
<path d="M39 359.352C39 359.352 128.233 290.491 242 389.268L197.942 457C197.942 457 130.72 351.066 56.3376 385.689" stroke="#1F2B24" stroke-miterlimit="10" stroke-linecap="round" stroke-linejoin="round"/>
<path d="M746.098 152.084C746.098 152.084 690.81 115.187 696.385 50.1138C701.961 -14.9595 720.545 -11.6052 723.797 15.9C727.049 43.4052 704.748 76.9481 746.098 152.084Z" fill="#F4FBF6"/>
<path d="M251.444 229.967C251.444 229.967 279.86 219.855 283.438 209.121C287.016 198.387 282.685 173.471 293.985 165.021C293.985 165.021 286.082 172.28 290.218 193.748C293.492 210.741 299.648 235.061 264.189 245.348" fill="#1F2B24"/>
<path d="M735.016 242.843L715.673 258.162C733.223 281.069 770.799 365.848 759.748 482.138L782.304 466.532C791.936 313.012 735.016 242.843 735.016 242.843Z" fill="#E0F2E7"/>
<path d="M730.645 320.434C717.819 282.096 705.448 265.482 705.448 265.482L685.539 282.299C692.26 291.888 701.863 307.951 709.869 332.381L730.645 320.434Z" fill="#E0F2E7"/>
<path d="M722.909 397.882L744.098 385.698C742.108 366.463 738.974 350.003 735.288 336.023L714.435 348.016C718.112 362.261 721.136 378.8 722.909 397.882Z" fill="#E0F2E7"/>
<path d="M724.998 414.941C727.672 439.402 730.343 470.808 726.259 503.972L748.144 489.189C751.677 454.272 747.446 418.605 745.525 403.137L724.998 414.941Z" fill="#E0F2E7"/>
<path d="M244.89 278.633C244.89 278.633 247.16 278.835 248.726 277.06C248.726 277.06 249.234 280.582 247.744 281.044C246.254 281.504 244.89 278.633 244.89 278.633Z" fill="white"/>
<path d="M500.819 171.187C500.849 171.139 500.88 171.093 500.91 171.045C500.958 170.969 500.914 171.021 500.819 171.187Z" fill="#C8E7FE"/>
<path d="M312.765 166.6C312.765 166.6 332.027 133.873 351.802 125.152C351.802 125.152 323.411 150.141 317.761 177.479C312.111 204.816 312.765 166.6 312.765 166.6Z" fill="#1F2B24"/>
<path d="M11.5 321L40 359.5L62.5418 392.915C63.8432 394.844 66.018 396 68.3448 396H143" stroke="white" stroke-width="3" stroke-linecap="round" stroke-linejoin="round"/>
<path d="M9.5 322L60.9176 397.925C62.2199 399.848 64.3912 401 66.7136 401H154.5" stroke="#BDBDBD" stroke-width="6" stroke-linecap="round" stroke-linejoin="round"/>
<path d="M200.761 360.064C155.139 371.068 116.365 381.352 113.852 408.946C113.642 411.248 115.199 413.245 117.15 413.245C118.685 413.245 120.04 411.996 120.371 410.215C120.987 406.912 122.33 403.018 124.463 401.077C124.463 401.077 122.911 404.241 122.06 408.463C121.57 410.897 123.101 413.245 125.209 413.245C126.755 413.245 128.085 411.951 128.386 410.151C128.94 406.841 130.069 403.327 132.374 402.552C132.374 402.552 131.572 405.084 130.999 408.64C130.614 411.03 132.166 413.245 134.214 413.245C135.689 413.245 136.983 412.075 137.366 410.384C138.044 407.387 139.361 404.416 141.06 402.831C141.06 402.831 139.952 405.365 139.243 409.009C138.822 411.172 140.19 413.244 142.06 413.244C143.337 413.244 144.462 412.253 144.83 410.801C146.49 404.251 151.884 386.664 162.319 384.757C175.173 382.409 234.707 392.56 255.329 378.639C275.952 364.719 251.799 347.754 200.761 360.064Z" fill="#F9BF7A"/>
<path d="M134.511 288.838C134.511 288.838 127.427 284.318 121.483 288.061C114.969 292.163 115.196 297.873 104.234 298.516C93.2712 299.158 92.4752 302.896 92.4752 302.896C92.4752 302.896 90.1056 299.517 95.9442 296.095C101.783 292.674 101.783 292.674 101.783 292.674C101.783 292.674 96.142 290.926 93.6057 294.412C91.0695 297.899 90.1107 311.773 86.5275 311.279C83.5432 310.868 86.9801 306.784 88.64 298.561C89.6999 293.309 91.1169 291.783 91.1169 291.783C91.1169 291.783 88.0569 295.119 85.4342 301.382C82.8115 307.645 79.7566 310.578 78.7266 308.626C77.6549 306.596 80.8352 303.136 82.0437 299.951C84.4913 293.5 87.8671 289.446 88.4095 289.173C88.9519 288.9 79.4493 297.695 72.7502 296.176C67.1166 294.898 72.5468 293.576 76.0469 292.214C79.547 290.853 89.4219 282.425 94.2741 280.708C99.1263 278.99 116.377 271.777 131.591 274.941C135.176 275.686 134.511 288.838 134.511 288.838Z" fill="#F9BF7A"/>
<path d="M94.3248 288.232C94.3248 288.232 92.1078 294.497 97.7843 300.314C101.012 303.622 101.342 305.525 101.342 305.525C101.342 305.525 104.072 305.945 103.422 302.623C102.773 299.301 96.539 294.383 98.729 289.817" fill="#F9BF7A"/>
<path d="M715.516 223.871C701.904 217.327 688.598 225.599 672.009 213.605C658.021 203.493 659.578 223.568 648.105 228.284C652.292 233.294 679.781 234.566 690.269 233.907C699.745 233.311 709.633 230.722 714.987 229.633C717.504 229.122 717.883 225.009 715.516 223.871Z" fill="#1F2B24"/>
<path opacity="0.4" d="M213.792 323.001C213.792 323.001 214.969 321.093 217.642 318.639" stroke="#1F2B24" stroke-miterlimit="10" stroke-linecap="round" stroke-linejoin="round"/>
<path opacity="0.4" d="M248.423 356.772C248.423 356.772 247.714 359.393 248.454 362.383" stroke="#1F2B24" stroke-miterlimit="10" stroke-linecap="round" stroke-linejoin="round"/>
<path d="M624.765 187.895C625.325 174.017 616.303 162.227 604.614 161.563C592.926 160.899 582.997 171.612 582.438 185.49C581.878 199.369 590.9 211.158 602.589 211.822C614.277 212.487 624.206 201.774 624.765 187.895Z" fill="#1F2B24"/>
<path d="M621.212 185.715C621.771 171.837 612.749 160.048 601.061 159.383C589.372 158.719 579.443 169.432 578.884 183.31C578.325 197.189 587.347 208.978 599.035 209.642C610.724 210.307 620.652 199.594 621.212 185.715Z" fill="#6FCF97"/>
<path d="M599.838 170.221L588.018 192.048L609.848 193.289L599.838 170.221Z" fill="#6FCF97" stroke="#1F2B24" stroke-miterlimit="10" stroke-linecap="round" stroke-linejoin="round"/>
<path opacity="0.6" d="M184.663 297.584C184.663 297.584 185.065 313.263 179.027 326.521L169.458 319.235L184.663 297.584Z" fill="#1F2B24"/>
<path d="M45.5938 332.726L44.1523 342.08L54.1774 344.258L55.6189 334.904L45.5938 332.726Z" stroke="#1F2B24" stroke-miterlimit="10" stroke-linecap="round" stroke-linejoin="round"/>
<path d="M68 331.353L69.4418 322" stroke="#1F2B24" stroke-miterlimit="10" stroke-linecap="round" stroke-linejoin="round"/>
<path d="M82.3496 329.729L91.668 322.088" stroke="#1F2B24" stroke-miterlimit="10" stroke-linecap="round" stroke-linejoin="round"/>
<path d="M90.2263 331.441L83.791 320.376" stroke="#1F2B24" stroke-miterlimit="10" stroke-linecap="round" stroke-linejoin="round"/>
<path opacity="0.6" d="M574.544 299.567C574.544 299.567 631.478 265.205 667.861 233.286" stroke="#1F2B24" stroke-miterlimit="10" stroke-linecap="round" stroke-linejoin="round"/>
<path d="M795.687 329.479C799.556 328.442 801.983 323.877 801.109 319.284C800.235 314.691 796.39 311.809 792.522 312.847C788.654 313.885 786.227 318.449 787.101 323.042C787.975 327.635 791.819 330.517 795.687 329.479Z" stroke="#1F2B24" stroke-miterlimit="10" stroke-linecap="round" stroke-linejoin="round"/>
<path d="M678.303 80.525C674.643 82.2775 672.882 86.797 674.371 90.6197C675.86 94.4424 680.034 96.1207 683.694 94.3683C687.354 92.6159 689.115 88.0964 687.626 84.2737C686.137 80.451 681.963 78.7726 678.303 80.525Z" stroke="#1F2B24" stroke-miterlimit="10" stroke-linecap="round" stroke-linejoin="round"/>
<path d="M675.564 56.6749C671.904 58.4273 670.143 62.9468 671.632 66.7695C673.12 70.5923 677.294 72.2706 680.955 70.5182C684.615 68.7658 686.375 64.2463 684.887 60.4236C683.398 56.6008 679.224 54.9225 675.564 56.6749Z" stroke="#1F2B24" stroke-miterlimit="10" stroke-linecap="round" stroke-linejoin="round"/>
<path d="M668.579 33.3238C664.918 35.0762 663.158 39.5958 664.646 43.4185C666.135 47.2412 670.309 48.9195 673.969 47.1671C677.629 45.4147 679.39 40.8952 677.901 37.0725C676.413 33.2498 672.239 31.5714 668.579 33.3238Z" stroke="#1F2B24" stroke-miterlimit="10" stroke-linecap="round" stroke-linejoin="round"/>
<path d="M66 389.5C66 389.5 65.6405 361.343 124.865 337.071C165.308 320.495 172.034 281.293 168.579 261.304C167.523 255.19 170.819 249.218 175.976 248.007C181.458 246.719 186.662 251.34 187.197 257.945C189.1 281.441 187.449 332.226 141.218 350.224C92.5997 369.153 80 374.5 66 389.5Z" fill="#6FCF97"/>
<path d="M262.527 522.057C247.053 497.083 209.22 463.846 209.22 463.846C226.967 434.944 252.737 398.172 252.737 398.172C252.737 398.172 299.86 437.679 316.156 461L262.527 522.057Z" fill="#E0F2E7"/>
<path d="M231.555 464.008C233.272 461.442 232.913 457.708 230.752 455.669C228.59 453.629 225.446 454.056 223.728 456.622C222.011 459.189 222.37 462.922 224.531 464.962C226.693 467.001 229.837 466.574 231.555 464.008Z" stroke="white" stroke-miterlimit="10" stroke-linecap="round" stroke-linejoin="round"/>
<path d="M252.162 413.328C273.234 428.794 301.608 460.751 301.608 460.751L266.453 503.354C266.453 503.354 256.289 496.409 265.676 476.738C275.063 457.067 264.2 450.11 249.507 447.925C228.566 444.811 252.162 413.328 252.162 413.328Z" stroke="white" stroke-miterlimit="10" stroke-linecap="round" stroke-linejoin="round"/>
<path d="M796.149 329.33C804.843 365.426 811.688 410.688 812.575 465.138" stroke="#1F2B24" stroke-miterlimit="10" stroke-linecap="round" stroke-linejoin="round"/>
<path d="M344.608 372.748C345.053 372.854 345.504 372.605 345.721 372.133C345.96 371.577 345.81 370.897 345.373 370.55C343.473 368.516 341.977 366.006 340.992 363.203C339.446 358.779 339.224 353.859 340.363 349.264L341.575 344.484L345.067 345.732C345.294 345.805 345.536 345.767 345.739 345.626C345.915 345.498 346.047 345.3 346.109 345.066C346.169 344.831 346.152 344.577 346.06 344.357L339.764 330.444C339.545 329.967 339.043 329.787 338.638 330.042L326.964 337.508C326.562 337.779 326.421 338.385 326.649 338.863C326.751 339.075 326.915 339.236 327.11 339.315L330.602 340.563L330.114 342.489C328.394 349.626 329.513 357.306 333.153 363.342C335.986 367.901 340.016 371.21 344.608 372.748Z" stroke="#1F2B24" stroke-miterlimit="10" stroke-linecap="round" stroke-linejoin="round"/>
<path d="M713.291 196.646C713.584 196.273 713.593 195.696 713.313 195.223C712.976 194.683 712.356 194.452 711.873 194.684C709.343 195.404 706.617 195.468 703.893 194.871C699.597 193.923 695.52 191.413 692.34 187.76L689.044 183.934L691.682 181.231C691.847 181.051 691.929 180.794 691.91 180.519C691.889 180.277 691.79 180.039 691.631 179.849C691.469 179.66 691.256 179.537 691.035 179.504L676.858 177.916C676.37 177.865 675.991 178.253 676.007 178.788L676.589 194.27C676.62 194.812 677.044 195.285 677.536 195.328C677.756 195.347 677.962 195.276 678.116 195.13L680.754 192.427L682.082 193.969C687.044 199.595 693.77 202.763 700.345 202.569C705.35 202.342 709.905 200.258 713.291 196.646Z" stroke="#1F2B24" stroke-miterlimit="10" stroke-linecap="round" stroke-linejoin="round"/>
<path d="M137.372 239.831L127.962 215.065" stroke="#1F2B24" stroke-miterlimit="10" stroke-linecap="round" stroke-linejoin="round"/>
<path d="M142.352 237.164L132.94 212.398" stroke="#1F2B24" stroke-miterlimit="10" stroke-linecap="round" stroke-linejoin="round"/>
<path d="M147.329 234.497L137.919 209.731" stroke="#1F2B24" stroke-miterlimit="10" stroke-linecap="round" stroke-linejoin="round"/>
<path d="M193.668 183.595C194.941 181.875 196.008 180.432 196.584 179.653C199.119 176.226 198.834 171.006 195.947 167.996C193.214 165.146 189.131 165.303 186.552 168.236C182.865 164.875 177.564 165.443 174.453 169.65C171.209 174.035 171.574 180.713 175.268 184.564C175.774 185.092 176.318 185.537 176.885 185.905C176.678 186.115 176.477 186.337 176.293 186.587C174.217 189.394 174.45 193.668 176.814 196.133C179.178 198.597 182.778 198.32 184.853 195.513C185.438 194.723 186.529 193.248 187.827 191.492" stroke="#1F2B24" stroke-miterlimit="10" stroke-linecap="round" stroke-linejoin="round"/>
<path d="M184.529 180.233L193.131 189.203" stroke="#1F2B24" stroke-miterlimit="10" stroke-linecap="round" stroke-linejoin="round"/>
<path d="M184.578 187.264L184.175 179.88L190.291 179.409" stroke="#1F2B24" stroke-miterlimit="10" stroke-linecap="round" stroke-linejoin="round"/>
<path d="M570.81 435.319L577.519 455.663L600.849 444.816L594.141 424.473L570.81 435.319Z" stroke="#1F2B24" stroke-miterlimit="10" stroke-linecap="round" stroke-linejoin="round"/>
<path d="M564.021 430.989L570.729 451.332L594.06 440.486L587.352 420.142L564.021 430.989Z" stroke="#1F2B24" stroke-miterlimit="10" stroke-linecap="round" stroke-linejoin="round"/>
<path d="M180.616 262.536C182.268 260.575 182.268 257.396 180.616 255.436C178.965 253.476 176.288 253.476 174.637 255.436C173.449 256.846 173.116 258.886 173.636 260.649" stroke="#1F2B24" stroke-linecap="round" stroke-linejoin="round"/>
<path d="M171.329 261.855L176.478 263.818L175.337 257.541L171.329 261.855Z" fill="#1F2B24"/>
<path d="M66 389.5C83 366 114.5 355.274 139 345C163.5 334.726 179.026 308.28 181.854 273.793" stroke="#1F2B24" stroke-miterlimit="10" stroke-linecap="round" stroke-linejoin="round"/>
<path d="M458.169 98.904L491.692 94.1543C491.692 94.1543 472.275 161.82 504.055 221.688C535.835 281.557 478.885 242.843 478.885 242.843C478.885 242.843 446.493 193.289 458.169 98.904Z" fill="#E0F2E7"/>
<path d="M341.458 169.289C316.881 138.765 317.487 91.394 317.487 91.394L293.984 97.7672C293.984 97.7672 303.786 159.486 327.798 181.96C327.798 181.96 331.677 176.394 339.731 170.498" fill="#6FCF97"/>
<path d="M299.266 213.826C299.266 213.826 310.891 215.949 320.594 194.706C327.903 178.705 338.889 169.227 350.809 164.286" stroke="#F2F2F2" stroke-miterlimit="10" stroke-linecap="round" stroke-linejoin="round"/>
<path d="M367.018 168.096C367.018 168.096 339.899 169.996 330.294 186.88" stroke="#F2F2F2" stroke-miterlimit="10" stroke-linecap="round" stroke-linejoin="round"/>
<path d="M311.836 125.887L307.452 141.621L321.12 138.262L311.836 125.887Z" stroke="#1F2B24" stroke-miterlimit="10" stroke-linecap="round" stroke-linejoin="round"/>
<path d="M303.876 99.4966L301.131 109.348L314.799 105.989L308.985 98.2407" stroke="#1F2B24" stroke-miterlimit="10" stroke-linecap="round" stroke-linejoin="round"/>
<path d="M304.1 84.7847L299.716 100.519L313.384 97.16L304.1 84.7847Z" stroke="#1F2B24" stroke-miterlimit="10" stroke-linecap="round" stroke-linejoin="round"/>
<path d="M342.723 251.562H358.072" stroke="#1F2B24" stroke-miterlimit="10" stroke-linecap="round" stroke-linejoin="round"/>
<path d="M342.723 256.341H358.072" stroke="#1F2B24" stroke-miterlimit="10" stroke-linecap="round" stroke-linejoin="round"/>
<path d="M557.943 229.763L557.455 229.652L557.455 229.652L557.943 229.763ZM512.974 65.5664L512.93 65.0683C512.689 65.0892 512.498 65.2797 512.476 65.5205C512.454 65.7614 512.607 65.9836 512.84 66.0482L512.974 65.5664ZM631.622 11.0947L632.05 10.8369C631.966 10.6971 631.819 10.6072 631.657 10.5959C631.494 10.5847 631.336 10.6535 631.233 10.7803L631.622 11.0947ZM652.527 191.393L653.003 191.546L652.527 191.393ZM685.796 343.852L686.043 344.287C686.183 344.207 686.276 344.066 686.293 343.906C686.311 343.746 686.251 343.588 686.131 343.481L685.796 343.852ZM593.403 396.322L592.978 396.586C593.12 396.814 593.416 396.889 593.649 396.756L593.403 396.322ZM558.431 229.874C574.681 158.42 563.445 117.221 548.049 93.8661C540.354 82.1942 531.634 75.0026 524.831 70.7275C521.43 68.5902 518.507 67.1819 516.432 66.3069C515.394 65.8693 514.567 65.565 513.998 65.3694C513.713 65.2717 513.493 65.2011 513.342 65.1546C513.267 65.1314 513.21 65.1142 513.17 65.1026C513.15 65.0969 513.135 65.0925 513.125 65.0895C513.119 65.088 513.115 65.0869 513.112 65.086C513.111 65.0856 513.11 65.0853 513.109 65.0851C513.108 65.0848 513.107 65.0846 512.974 65.5664C512.84 66.0482 512.84 66.0482 512.84 66.0482C512.841 66.0483 512.841 66.0485 512.842 66.0487C512.844 66.0492 512.847 66.0501 512.851 66.0512C512.859 66.0536 512.872 66.0573 512.889 66.0623C512.924 66.0725 512.977 66.0883 513.047 66.11C513.188 66.1535 513.398 66.2209 513.673 66.3152C514.222 66.5038 515.027 66.8001 516.043 67.2283C518.075 68.0848 520.948 69.4688 524.299 71.5742C530.999 75.7845 539.609 82.8803 547.214 94.4165C562.417 117.478 573.666 158.376 557.455 229.652L558.431 229.874ZM512.974 65.5664C513.017 66.0645 513.017 66.0645 513.018 66.0644C513.019 66.0644 513.02 66.0643 513.021 66.0641C513.024 66.0639 513.028 66.0636 513.033 66.0631C513.043 66.0622 513.058 66.0609 513.077 66.0591C513.117 66.0555 513.175 66.0501 513.253 66.0427C513.407 66.0279 513.636 66.0053 513.936 65.9738C514.536 65.9108 515.42 65.8123 516.558 65.6701C518.834 65.3859 522.125 64.9268 526.194 64.2275C534.332 62.8289 545.583 60.4684 558.038 56.6203C582.933 48.9288 612.709 35.2729 632.011 11.4092L631.233 10.7803C612.116 34.4153 582.567 47.9952 557.743 55.6649C545.338 59.4974 534.131 61.8488 526.025 63.2419C521.972 63.9384 518.696 64.3953 516.434 64.6779C515.303 64.8192 514.426 64.9169 513.832 64.9792C513.535 65.0104 513.309 65.0327 513.157 65.0472C513.082 65.0545 513.024 65.0598 512.986 65.0632C512.967 65.065 512.953 65.0662 512.944 65.0671C512.939 65.0675 512.936 65.0678 512.933 65.068C512.932 65.0681 512.932 65.0682 512.931 65.0682C512.931 65.0683 512.93 65.0683 512.974 65.5664ZM631.622 11.0947C631.194 11.3526 631.194 11.3528 631.194 11.3533C631.194 11.3539 631.195 11.3547 631.196 11.3559C631.197 11.3583 631.199 11.3619 631.202 11.3669C631.208 11.3769 631.217 11.392 631.229 11.4123C631.253 11.4529 631.289 11.514 631.337 11.5953C631.432 11.7581 631.574 12.0019 631.757 12.3244C632.124 12.9694 632.66 13.9293 633.331 15.1856C634.673 17.6982 636.557 21.3961 638.724 26.1309C643.058 35.601 648.522 49.2167 653.033 65.7924C662.057 98.947 667.267 143.917 652.051 191.239L653.003 191.546C668.296 143.981 663.054 98.8024 653.998 65.5298C649.47 48.8918 643.986 35.2244 639.633 25.7147C637.457 20.9597 635.563 17.2435 634.213 14.7145C633.537 13.45 632.998 12.4823 632.627 11.8298C632.441 11.5036 632.297 11.2562 632.2 11.0899C632.151 11.0068 632.114 10.944 632.089 10.9017C632.077 10.8805 632.067 10.8645 632.061 10.8537C632.057 10.8483 632.055 10.8442 632.053 10.8414C632.052 10.84 632.052 10.8389 632.051 10.8382C632.051 10.8373 632.05 10.8369 631.622 11.0947ZM685.549 343.417L593.156 395.887L593.649 396.756L686.043 344.287L685.549 343.417ZM593.403 396.322C593.827 396.058 593.827 396.057 593.827 396.057C593.826 396.056 593.826 396.055 593.825 396.054C593.823 396.052 593.821 396.048 593.818 396.043C593.812 396.033 593.802 396.017 593.789 395.997C593.764 395.955 593.726 395.893 593.676 395.811C593.576 395.647 593.427 395.401 593.233 395.076C592.846 394.427 592.28 393.463 591.565 392.207C590.136 389.695 588.113 386.016 585.743 381.349C581.001 372.015 574.868 358.735 569.304 342.952C558.173 311.377 549.34 269.843 558.431 229.874L557.455 229.652C548.305 269.887 557.202 311.632 568.361 343.285C573.942 359.117 580.094 372.438 584.851 381.802C587.23 386.484 589.26 390.178 590.696 392.702C591.414 393.964 591.984 394.933 592.374 395.588C592.57 395.916 592.72 396.164 592.822 396.332C592.873 396.415 592.912 396.478 592.938 396.521C592.951 396.542 592.961 396.558 592.968 396.569C592.971 396.574 592.973 396.578 592.975 396.581C592.976 396.583 592.977 396.584 592.977 396.584C592.978 396.585 592.978 396.586 593.403 396.322ZM652.051 191.239C647.768 204.561 645.337 217.152 644.325 228.957L645.321 229.043C646.326 217.314 648.742 204.796 653.003 191.546L652.051 191.239ZM644.099 252.034C646.076 281.245 656.412 304.286 666.251 320.023C671.171 327.892 675.968 333.937 679.537 338.016C681.322 340.056 682.8 341.605 683.833 342.645C684.35 343.165 684.755 343.558 685.032 343.822C685.171 343.954 685.277 344.053 685.35 344.12C685.386 344.154 685.413 344.179 685.432 344.196C685.441 344.205 685.448 344.211 685.453 344.216C685.456 344.218 685.458 344.22 685.459 344.221C685.46 344.221 685.46 344.222 685.461 344.222C685.461 344.223 685.461 344.223 685.796 343.852C686.131 343.481 686.131 343.481 686.131 343.48C686.131 343.48 686.131 343.48 686.13 343.48C686.129 343.479 686.128 343.477 686.126 343.476C686.122 343.472 686.115 343.466 686.107 343.458C686.09 343.442 686.064 343.419 686.029 343.387C685.96 343.323 685.857 343.226 685.722 343.098C685.451 342.84 685.052 342.454 684.542 341.941C683.523 340.914 682.059 339.381 680.289 337.358C676.75 333.312 671.986 327.31 667.099 319.493C657.324 303.859 647.06 280.975 645.097 251.966L644.099 252.034Z" fill="#1F2B24"/>
<path d="M496.615 183.439C496.509 183.332 496.419 183.242 496.345 183.168L501.361 171.264C501.366 171.255 501.374 171.241 501.385 171.223C501.411 171.18 501.451 171.114 501.506 171.032C501.616 170.866 501.786 170.633 502.018 170.369C502.484 169.84 503.191 169.201 504.165 168.743C506.075 167.846 509.154 167.583 513.697 170.625C518.302 173.709 526.492 180.945 533.142 189.263C536.465 193.419 539.389 197.828 541.29 202.107C543.194 206.392 544.048 210.495 543.308 214.066C543.13 214.925 542.811 215.517 542.403 215.911C541.997 216.303 541.466 216.536 540.792 216.612C539.413 216.768 537.511 216.253 535.204 215.162C530.616 212.992 524.748 208.701 518.938 203.914C513.138 199.135 507.431 193.889 503.173 189.836C501.044 187.81 499.278 186.083 498.044 184.863C497.428 184.253 496.944 183.77 496.615 183.439Z" fill="#1F2B24" stroke="#1F2B24"/>
<path d="M560.682 120.757C481.397 170.815 504.056 221.689 504.056 221.689C442.543 223.495 376.019 282.738 367.451 320.593C364.479 333.718 408.309 351.214 422.457 345.04C468.62 324.893 517.823 260.657 528.525 227.769C542.507 184.802 572.546 135.775 595.288 107.786C601.586 100.033 592.141 100.895 560.682 120.757Z" fill="#F9BF7A"/>
<path d="M500.91 171.046C471.123 218.586 386.714 258.791 364.748 297.732C355.073 314.883 364.748 356.215 382.065 348.969C439.74 389.322 541.457 220.878 541.457 220.878C547.399 210.744 542.551 204.894 521.515 196.152C491.612 183.724 501.419 170.234 500.91 171.046Z" fill="#6652e0"/>
<path d="M364.475 298.241C364.475 298.241 388.109 319.185 374.69 355.812" stroke="#1F2B24" stroke-miterlimit="10" stroke-linecap="round" stroke-linejoin="round"/>
<path d="M631.57 82.1741C616.887 81.8977 606.988 95.3089 587.872 91.224C571.754 87.7798 579.302 105.838 570.033 115.148C575.459 118.03 601.486 107.448 611.069 102.343C619.726 97.7307 628.163 91.0825 632.827 87.7751C635.019 86.2208 634.123 82.2224 631.57 82.1741Z" fill="#1F2B24"/>
<path d="M438.993 338.737C475.862 314.814 515.982 259.335 535.699 229.913" stroke="#1F2B24" stroke-miterlimit="10" stroke-linecap="round" stroke-linejoin="round"/>
<path opacity="0.6" d="M537.219 203.933C537.219 203.933 567.383 139.098 593.404 110.131" stroke="#1F2B24" stroke-miterlimit="10" stroke-linecap="round" stroke-linejoin="round"/>
<path opacity="0.4" d="M124.464 401.077C124.464 401.077 122.046 402.29 120.081 411.161" stroke="#1F2B24" stroke-miterlimit="10" stroke-linecap="round" stroke-linejoin="round"/>
<path opacity="0.4" d="M132.29 401.4C132.29 401.4 129.872 402.613 127.907 411.484" stroke="#1F2B24" stroke-miterlimit="10" stroke-linecap="round" stroke-linejoin="round"/>
<path opacity="0.4" d="M141.383 402C141.383 402 138.965 403.214 137 412.084" stroke="#1F2B24" stroke-miterlimit="10" stroke-linecap="round" stroke-linejoin="round"/>
<path d="M324.52 475.714L271.329 534.076" stroke="#1F2B24" stroke-miterlimit="10" stroke-linecap="round" stroke-linejoin="round"/>
<path d="M333.325 485.952L280.135 544.315" stroke="#1F2B24" stroke-miterlimit="10" stroke-linecap="round" stroke-linejoin="round"/>
<path d="M488.406 520.402C483.797 518.556 478.457 520.509 476.385 525.02L466.203 547.181C465.398 548.933 465.696 550.994 466.963 552.446V552.446C467.452 553.006 468.011 553.427 468.701 553.703C479.515 558.034 576.209 594.66 649.393 550.72C652.772 548.691 654.235 544.587 653.112 540.808L645.739 516.004C645.35 514.695 644.423 513.613 643.19 513.028V513.028C641.751 512.344 640.077 512.42 638.68 513.186C616.566 525.309 556.121 547.523 488.406 520.402Z" fill="#1F2B24"/>
<path d="M483.809 515.188C479.42 513.412 474.358 515.577 472.829 520.059L465.625 541.179C464.284 545.11 466.146 549.368 470.036 550.821C494.234 559.857 578.397 586.354 644.156 546.397C647.15 544.578 648.457 540.929 647.459 537.57L642.103 519.553C640.645 514.651 635.002 512.225 630.291 514.217C608.652 523.367 550.429 542.158 483.809 515.188Z" fill="#6FCF97"/>
<path d="M494.633 468.335C492.454 467.408 489.899 468.483 489.135 470.724L481.406 493.384C480.735 495.349 481.636 497.469 483.57 498.224C500.174 504.705 575.135 530.573 632.396 494.388C633.877 493.452 634.539 491.628 634.04 489.949L627.278 467.205C626.895 465.915 625.984 465.514 624.776 466.108C614.022 471.404 558.708 495.601 494.633 468.335Z" stroke="#1F2B24" stroke-miterlimit="10" stroke-linecap="round" stroke-linejoin="round"/>
<path d="M560.952 555.153L589.206 571.065L581.107 576.473L591.634 589.697L588.191 593.497L577.663 580.273L572.613 589.635L560.952 555.153Z" fill="white" stroke="#1F2B24" stroke-miterlimit="10" stroke-linecap="round" stroke-linejoin="round"/>
<path d="M711.663 513.241C719.573 406.117 693.208 358.988 693.208 358.988L599.386 410.611C599.386 410.611 648.761 444.935 658.554 538.912L711.663 513.241Z" fill="#E0F2E7"/>
<path d="M701.963 507.662C714.393 441.582 688.686 373.49 688.686 373.49L620.604 411.729C620.604 411.729 629.144 441.918 656.264 433.532C683.384 425.146 682.471 435.533 674.561 448.95C666.651 462.367 660.651 482.169 676.505 491.897C692.359 501.624 701.963 507.662 701.963 507.662Z" stroke="white" stroke-miterlimit="10" stroke-linecap="round" stroke-linejoin="round"/>
<path d="M670.983 513.241C673.162 513.241 674.929 511.143 674.929 508.556C674.929 505.969 673.162 503.872 670.983 503.872C668.804 503.872 667.038 505.969 667.038 508.556C667.038 511.143 668.804 513.241 670.983 513.241Z" stroke="white" stroke-miterlimit="10" stroke-linecap="round" stroke-linejoin="round"/>
<path d="M550.319 366.751L554.834 358.304L561.387 363.241" stroke="#1F2B24" stroke-miterlimit="10" stroke-linecap="round" stroke-linejoin="round"/>
<path d="M554.269 381.72L559.042 373.474L565.437 378.693" stroke="#1F2B24" stroke-miterlimit="10" stroke-linecap="round" stroke-linejoin="round"/>
<path d="M558.341 396.36L563.069 388.079L569.492 393.249" stroke="#1F2B24" stroke-miterlimit="10" stroke-linecap="round" stroke-linejoin="round"/>
<path d="M442.411 164C439.96 158.146 440.788 150.847 444.897 145.969C449.307 140.732 456.066 139.983 461.148 143.722" stroke="#1F2B24" stroke-linecap="round" stroke-linejoin="round"/>
<path d="M459.341 145.341L463.534 145.968L461.895 141.344L459.341 145.341Z" fill="#1F2B24"/>
<path d="M466.578 151.604C468.304 157.156 467.289 163.638 463.534 168.097C459.123 173.334 452.364 174.083 447.282 170.344" stroke="#1F2B24" stroke-linecap="round" stroke-linejoin="round"/>
<path d="M449.089 168.723L444.896 168.097L446.536 172.721L449.089 168.723Z" fill="#1F2B24"/>
<path d="M498.945 392.427C505.549 392.064 517.648 392.802 527.905 401.149" stroke="#1F2B24" stroke-miterlimit="10" stroke-linecap="round" stroke-linejoin="round"/>
<path d="M498.633 401.289C504.616 401.145 514.823 402.533 526.683 410.969" stroke="#1F2B24" stroke-miterlimit="10" stroke-linecap="round" stroke-linejoin="round"/>
<path d="M498.188 411.143C504.71 411.078 515.348 412.557 525.579 420.934" stroke="#1F2B24" stroke-miterlimit="10" stroke-linecap="round" stroke-linejoin="round"/>
<path opacity="0.6" d="M102.5 292.5C102.5 292.5 95.5 289.5 92.5 295.5" stroke="#1F2B24" stroke-miterlimit="10" stroke-linecap="round" stroke-linejoin="round"/>
</g>
<defs>
<clipPath id="clip0">
<rect width="813" height="594" fill="white"/>
</clipPath>
</defs>
</svg>
